<svg width="400" height="520" viewBox="0 0 400 520" xmlns="http://www.w3.org/2000/svg">
  <text x="200" y="30" text-anchor="middle" font-family="'Inter', sans-serif" font-weight="800" font-size="18" fill="#1e293b">Baby Tracker: Distributed Sync</text>
  <text x="200" y="50" text-anchor="middle" font-family="'Inter', sans-serif" font-weight="500" font-size="12" fill="#64748b">Local-First PWA with Real-time Sync</text>
  <g transform="translate(100, 80)">
    <rect x="0" y="0" width="200" height="35" rx="17.5" fill="#f8fafc" stroke="#e2e8f0" stroke-width="1.5"/>
    <text x="100" y="22" text-anchor="middle" font-family="'Inter', sans-serif" font-weight="700" font-size="11" fill="#475569">📱 Mobile / Web App</text>
  </g>
  <line x1="200" y1="115" x2="200" y2="140" stroke="#3b82f6" stroke-width="2"/><polygon points="196,140 204,140 200,147" fill="#3b82f6"/>
  <g transform="translate(30, 150)">
    <rect x="0" y="0" width="340" height="260" rx="10" fill="#f8fafc" stroke="#cbd5e1" stroke-width="1"/>
    <circle cx="15" cy="15" r="4" fill="#ff5f56"/><circle cx="27" cy="15" r="4" fill="#ffbd2e"/><circle cx="39" cy="15" r="4" fill="#27c93f"/>
    <rect x="90" y="5" width="160" height="20" rx="4" fill="#ffffff" stroke="#e2e8f0" stroke-width="1"/>
    <text x="170" y="19" text-anchor="middle" font-family="'Inter', sans-serif" font-weight="700" font-size="10" fill="#1d4ed8">Sync Architecture</text>
    <g transform="translate(15, 40)">
        <rect x="0" y="0" width="310" height="60" rx="8" fill="#fffbeb" stroke="#fef3c7" stroke-width="1"/>
        <text x="155" y="25" text-anchor="middle" font-family="'Inter', sans-serif" font-weight="700" font-size="11" fill="#92400e">Offline-First Engine</text>
        <text x="155" y="45" text-anchor="middle" font-family="'Inter', sans-serif" font-size="9" fill="#b45309">IndexedDB Storage &amp; Conflict Resolution</text>
    </g>
    <g transform="translate(15, 115)">
        <rect x="0" y="0" width="310" height="60" rx="8" fill="#f0fdf4" stroke="#99f6e4" stroke-width="1"/>
        <text x="155" y="25" text-anchor="middle" font-family="'Inter', sans-serif" font-weight="700" font-size="11" fill="#0f766e">WebSocket / P2P Sync</text>
        <text x="155" y="45" text-anchor="middle" font-family="'Inter', sans-serif" font-size="9" fill="#0d9488">Multi-device real-time state consistency</text>
    </g>
    <g transform="translate(15, 190)">
        <rect x="0" y="0" width="310" height="55" rx="8" fill="#eff6ff" stroke="#3b82f6" stroke-width="1.5"/>
        <text x="155" y="22" text-anchor="middle" font-family="'Inter', sans-serif" font-weight="700" font-size="11" fill="#1e40af">E2E Encryption</text>
        <text x="155" y="40" text-anchor="middle" font-family="'Inter', sans-serif" font-size="9" fill="#2563eb">Privacy-first data synchronization</text>
    </g>
  </g>
  <line x1="200" y1="415" x2="200" y2="435" stroke="#3b82f6" stroke-width="2"/><polygon points="196,435 204,435 200,442" fill="#3b82f6"/>
  <g transform="translate(60, 445)">
    <rect x="0" y="0" width="280" height="40" rx="8" fill="#ffffff" stroke="#0f172a" stroke-width="2"/>
    <text x="140" y="25" text-anchor="middle" font-family="'Inter', sans-serif" font-weight="700" font-size="11" fill="#0f172a">Seamless Multi-User Exp</text>
  </g>
  <g transform="translate(30, 495)">
      <rect x="0" y="0" width="160" height="25" rx="12.5" fill="#f0fdf4" stroke="#22c55e" stroke-width="1.5"/>
      <text x="80" y="17" text-anchor="middle" font-family="'Inter', sans-serif" font-weight="700" font-size="9" fill="#15803d">⚡ Sub-Second</text>
      <rect x="180" y="0" width="160" height="25" rx="12.5" fill="#eff6ff" stroke="#3b82f6" stroke-width="1.5"/>
      <text x="260" y="17" text-anchor="middle" font-family="'Inter', sans-serif" font-weight="700" font-size="9" fill="#1e40af">🛡️ Private &amp; Secure</text>
  </g>
</svg>
